<?xml version="1.0" encoding="utf-8"?>
<svg viewBox="0 0 500 500" xmlns="http://www.w3.org/2000/svg">
  <path fill-rule="evenodd" clip-rule="evenodd" fill="#E11E2E" d="M 414.691 190.208 C 405.328 193.249 399.61 202.249 400.317 211.613 L 297.595 244.921 C 296.075 241.587 294.21 238.391 292.016 235.438 L 327.5 203.46 C 331.215 205.378 335.654 205.913 340.008 204.514 C 348.49 201.766 353.154 192.609 350.391 184.094 C 347.609 175.611 338.488 170.93 329.953 173.71 C 321.454 176.493 316.806 185.613 319.57 194.131 C 319.743 194.684 319.951 195.236 320.193 195.755 L 284.862 227.559 C 282.186 225.107 279.179 222.947 276 221.115 L 295.47 177.391 C 299.669 177.633 303.935 176.285 307.287 173.243 C 313.972 167.301 314.473 157.04 308.531 150.389 C 302.52 143.72 292.309 143.186 285.64 149.197 C 279.006 155.174 278.436 165.4 284.449 172.085 C 284.829 172.484 285.242 172.898 285.709 173.313 L 266.308 216.777 C 262.889 215.674 259.329 214.861 255.597 214.465 L 255.597 106.094 C 264.495 103.641 271.06 95.572 271.06 85.898 C 271.06 74.305 261.679 64.942 250.087 64.942 C 238.546 64.942 229.113 74.305 229.113 85.898 C 229.113 95.712 235.904 103.917 244.991 106.215 L 244.991 214.447 C 241.293 214.792 237.717 215.553 234.28 216.624 L 214.827 172.881 C 217.797 169.98 219.646 165.885 219.646 161.359 C 219.646 152.393 212.373 145.154 203.442 145.154 C 194.493 145.154 187.236 152.393 187.236 161.359 C 187.236 170.307 194.493 177.564 203.442 177.564 C 204.047 177.564 204.617 177.546 205.222 177.477 L 224.553 220.891 C 221.357 222.688 218.368 224.882 215.62 227.299 L 180.067 195.271 C 181.605 191.365 181.657 186.893 179.791 182.745 C 176.146 174.557 166.576 170.911 158.42 174.54 C 150.231 178.186 146.535 187.738 150.18 195.911 C 153.808 204.081 163.414 207.76 171.567 204.15 C 172.12 203.891 172.639 203.633 173.123 203.339 L 208.399 235.109 C 206.205 238.027 204.289 241.206 202.768 244.577 L 99.889 211.13 C 100.304 201.921 94.638 193.215 85.413 190.225 C 74.391 186.633 62.573 192.68 58.998 203.667 C 55.439 214.74 61.468 226.523 72.49 230.115 C 81.802 233.156 91.735 229.268 96.729 221.288 L 199.295 254.611 C 198.518 258.189 198.034 261.887 197.999 265.686 L 150.802 270.628 C 148.935 266.896 145.654 263.854 141.334 262.439 C 132.818 259.693 123.696 264.339 120.914 272.874 C 118.15 281.371 122.798 290.512 131.314 293.258 C 139.814 296.022 148.97 291.409 151.717 282.857 C 151.907 282.287 152.046 281.717 152.201 281.166 L 198.967 276.259 C 199.675 279.956 200.781 283.566 202.232 286.987 L 161.357 310.568 C 158.109 307.908 153.877 306.492 149.385 306.924 C 140.471 307.908 134.027 315.907 134.943 324.77 C 135.911 333.649 143.857 340.127 152.72 339.176 C 161.668 338.226 168.112 330.262 167.163 321.365 C 167.11 320.795 167.025 320.225 166.904 319.603 L 207.484 296.212 C 209.643 299.288 212.149 302.12 214.931 304.608 L 151.717 391.661 C 143.045 388.396 132.99 391.091 127.325 398.951 C 120.517 408.298 122.573 421.426 131.988 428.232 C 141.334 435.057 154.465 432.949 161.254 423.569 C 167.025 415.605 166.386 405.015 160.355 397.794 L 223.465 310.982 C 226.677 312.9 230.167 314.525 233.779 315.665 L 224.018 361.584 C 219.888 362.223 215.985 364.452 213.289 368.096 C 208.054 375.352 209.626 385.475 216.864 390.711 C 224.104 395.979 234.262 394.39 239.514 387.134 C 244.766 379.879 243.159 369.755 235.937 364.52 C 235.42 364.176 234.971 363.847 234.453 363.571 L 244.127 317.946 C 246.061 318.153 248.03 318.291 250.017 318.291 C 251.884 318.291 253.663 318.222 255.476 318.049 L 265.237 363.897 C 261.679 366.126 259.018 369.738 258.068 374.194 C 256.202 382.938 261.817 391.54 270.576 393.353 C 279.317 395.236 287.921 389.64 289.769 380.898 C 291.653 372.122 286.089 363.554 277.278 361.67 C 276.708 361.567 276.138 361.463 275.568 361.428 L 265.876 315.838 C 269.522 314.663 272.978 313.073 276.19 311.155 L 339.386 398.139 C 333.632 405.326 333.115 415.76 338.781 423.551 C 345.587 432.932 358.718 435.023 368.081 428.217 C 377.462 421.392 379.553 408.28 372.71 398.934 C 366.923 390.97 356.627 388.275 347.903 391.851 L 284.776 304.936 C 287.575 302.431 290.115 299.599 292.309 296.576 L 333.166 320.121 C 332.459 324.234 333.375 328.655 336.034 332.301 C 341.304 339.557 351.428 341.146 358.666 335.878 C 365.921 330.642 367.511 320.52 362.258 313.263 C 356.99 306.008 346.831 304.418 339.628 309.686 C 339.11 310.034 338.66 310.395 338.228 310.792 L 297.561 287.315 C 299.064 283.946 300.273 280.388 301.016 276.673 L 348.076 281.596 C 349.13 285.639 351.721 289.302 355.642 291.599 C 363.381 296.022 373.298 293.396 377.773 285.605 C 382.266 277.883 379.57 267.966 371.831 263.508 C 364.09 259.052 354.191 261.697 349.717 269.418 C 349.423 269.919 349.164 270.456 348.94 271.008 L 302.053 266.048 C 302.053 262.284 301.621 258.568 300.809 255.01 L 403.565 221.667 C 408.628 229.339 418.354 233.07 427.562 230.064 C 438.567 226.488 444.561 214.689 441.021 203.65 C 437.548 192.661 425.713 186.615 414.691 190.208 L 414.691 190.208 Z"/>
</svg>